<svg xmlns="http://www.w3.org/2000/svg" xmlns:xlink="http://www.w3.org/1999/xlink" width="500" zoomAndPan="magnify" viewBox="0 0 375 374.999991" height="500" preserveAspectRatio="xMidYMid meet" version="1.0"><defs><g/><clipPath id="id1"><path d="M 21.378906 136.652344 L 108.589844 136.652344 L 108.589844 223.867188 L 21.378906 223.867188 Z M 21.378906 136.652344 " clip-rule="nonzero"/></clipPath></defs><rect x="-37.5" width="450" fill="#ffffff" y="-37.499999" height="449.999989" fill-opacity="1"/><rect x="-37.5" width="450" fill="#ffffff" y="-37.499999" height="449.999989" fill-opacity="1"/><rect x="-37.5" width="450" fill="#ffffff" y="-37.499999" height="449.999989" fill-opacity="1"/><rect x="-37.5" width="450" fill="#ffffff" y="-37.499999" height="449.999989" fill-opacity="1"/><g clip-path="url(#id1)"><path fill="#422600" d="M 64.992188 136.652344 C 40.90625 136.652344 21.378906 156.179688 21.378906 180.253906 C 21.378906 204.339844 40.90625 223.867188 64.992188 223.867188 C 89.066406 223.867188 108.589844 204.339844 108.589844 180.253906 C 108.589844 156.179688 89.066406 136.652344 64.992188 136.652344 Z M 64.058594 158.578125 C 69.320312 152.933594 70.035156 149.089844 68.289062 139.882812 C 72.652344 144.628906 73.964844 154.867188 68.953125 160.109375 C 64.476562 164.789062 62.644531 168.949219 64.058594 178.921875 C 60.132812 173.625 58.101562 164.96875 64.058594 158.578125 Z M 56.203125 159.042969 C 59.867188 155.132812 60.363281 152.453125 59.148438 146.058594 C 62.164062 149.355469 63.078125 156.464844 59.597656 160.109375 C 56.503906 163.355469 55.222656 166.234375 56.203125 173.160156 C 53.488281 169.480469 52.074219 163.472656 56.203125 159.042969 Z M 73.066406 159.042969 C 76.710938 155.132812 77.210938 152.453125 76.011719 146.058594 C 79.027344 149.355469 79.941406 156.464844 76.460938 160.109375 C 73.347656 163.355469 72.085938 166.234375 73.066406 173.160156 C 70.351562 169.480469 68.9375 163.472656 73.066406 159.042969 Z M 52.574219 199.464844 C 50.894531 199.597656 50.09375 199.496094 48.679688 198.929688 C 47.28125 198.382812 45.914062 197.234375 44.550781 195 C 44.152344 194.351562 43.835938 193.238281 43.734375 191.957031 C 43.667969 190.941406 43.75 189.859375 44.101562 188.890625 C 44.417969 188.011719 44.964844 187.226562 45.816406 186.695312 C 46.429688 186.3125 47.230469 186.0625 48.261719 186.011719 C 48.695312 191.171875 50.277344 195.835938 52.574219 199.464844 Z M 54.238281 201.660156 C 55.421875 203.074219 56.753906 204.257812 58.183594 205.171875 C 53.65625 204.941406 49.578125 205.039062 44.550781 204.558594 C 43.601562 204.457031 43.316406 205.171875 44.066406 205.539062 C 47.480469 207.1875 51.292969 208.503906 55.121094 208.46875 L 74.964844 208.46875 C 78.792969 208.503906 82.621094 207.1875 86.035156 205.539062 C 86.785156 205.171875 86.5 204.457031 85.550781 204.558594 C 80.523438 205.039062 76.429688 204.941406 72.019531 205.207031 C 78.027344 201.527344 82.222656 193.121094 82.222656 183.332031 C 82.222656 182.964844 82.207031 182.601562 82.207031 182.25 L 48.195312 182.234375 C 48.179688 182.601562 48.179688 182.964844 48.179688 183.332031 L 48.179688 183.582031 C 46.765625 183.683594 45.5 184.046875 44.550781 184.628906 C 43.183594 185.464844 42.320312 186.695312 41.820312 188.078125 C 41.355469 189.390625 41.21875 190.824219 41.320312 192.136719 C 41.4375 193.785156 41.902344 195.316406 42.484375 196.265625 C 44.167969 199.015625 45.933594 200.460938 47.78125 201.195312 C 49.644531 201.925781 52.191406 201.828125 54.15625 201.695312 " fill-opacity="1" fill-rule="evenodd"/></g><path fill="#422600" d="M 84.46875 149.820312 L 83.289062 148.640625 L 84.46875 147.441406 Z M 85.667969 151.019531 L 84.46875 149.820312 L 85.667969 148.640625 Z M 86.851562 151.019531 L 85.667969 149.820312 L 86.851562 148.640625 Z M 84.46875 148.640625 L 85.667969 147.441406 L 86.851562 148.640625 Z M 85.320312 146.441406 C 86.832031 146.441406 88.082031 147.675781 88.082031 149.1875 C 88.082031 150.71875 86.832031 151.953125 85.320312 151.953125 C 83.789062 151.953125 82.554688 150.71875 82.554688 149.1875 C 82.554688 147.675781 83.789062 146.441406 85.320312 146.441406 Z M 85.320312 146.109375 C 87.015625 146.109375 88.398438 147.492188 88.398438 149.1875 C 88.398438 150.902344 87.015625 152.285156 85.320312 152.285156 C 83.621094 152.285156 82.238281 150.902344 82.238281 149.1875 C 82.238281 147.492188 83.621094 146.109375 85.320312 146.109375 Z M 85.320312 146.109375 " fill-opacity="1" fill-rule="evenodd"/><g fill="#000000" fill-opacity="1"><g transform="translate(121.721181, 200.629277)"><g><path d="M 7.34375 0.375 C 6.800781 0.375 6.375 0.113281 6.0625 -0.40625 C 5.75 -0.9375 5.59375 -1.582031 5.59375 -2.34375 C 5.59375 -3.53125 5.664062 -5 5.8125 -6.75 L 5.921875 -8.15625 L 6.03125 -11.03125 C 6.03125 -12.300781 5.90625 -15.128906 5.65625 -19.515625 C 5.40625 -23.898438 5.28125 -26.726562 5.28125 -28 C 5.28125 -28.113281 5.285156 -28.320312 5.296875 -28.625 C 5.316406 -28.9375 5.328125 -29.414062 5.328125 -30.0625 C 5.367188 -30.789062 5.390625 -31.679688 5.390625 -32.734375 C 5.390625 -35.378906 5.207031 -37.066406 4.84375 -37.796875 C 4.625 -37.796875 4.148438 -37.738281 3.421875 -37.625 L 1.90625 -37.515625 C 1.4375 -37.515625 1.019531 -37.648438 0.65625 -37.921875 C 0.289062 -38.191406 0.109375 -38.546875 0.109375 -38.984375 C 0.109375 -39.421875 0.539062 -39.800781 1.40625 -40.125 C 2.675781 -40.5625 4.835938 -40.867188 7.890625 -41.046875 C 9.117188 -41.117188 9.859375 -41.15625 10.109375 -41.15625 C 10.546875 -41.15625 10.945312 -41.007812 11.3125 -40.71875 C 11.675781 -40.4375 11.859375 -40.078125 11.859375 -39.640625 C 11.859375 -39.203125 11.703125 -38.847656 11.390625 -38.578125 C 11.078125 -38.304688 10.6875 -38.171875 10.21875 -38.171875 L 9.25 -38.21875 C 8.957031 -38.257812 8.628906 -38.28125 8.265625 -38.28125 L 7.71875 -38.28125 C 7.976562 -35.8125 8.109375 -33.582031 8.109375 -31.59375 L 8.046875 -28.109375 C 8.015625 -27.054688 8 -25.878906 8 -24.578125 C 8 -22.835938 8.066406 -20.753906 8.203125 -18.328125 C 8.390625 -15.316406 8.484375 -13.234375 8.484375 -12.078125 C 8.484375 -10.691406 8.554688 -9.054688 8.703125 -7.171875 C 8.847656 -5.253906 8.921875 -3.625 8.921875 -2.28125 C 8.921875 -0.507812 8.394531 0.375 7.34375 0.375 Z M 7.34375 0.375 "/></g></g></g><g fill="#000000" fill-opacity="1"><g transform="translate(140.203861, 200.629277)"><g><path d="M 12.890625 0 C 11.648438 0 11.03125 -2.988281 11.03125 -8.96875 L 11.09375 -12.078125 L 11.140625 -14.578125 L 11.140625 -15.28125 C 11.179688 -15.570312 11.203125 -15.914062 11.203125 -16.3125 C 11.203125 -16.382812 11.144531 -16.472656 11.03125 -16.578125 C 10.925781 -16.691406 10.875 -16.785156 10.875 -16.859375 L 10.875 -16.90625 C 10.695312 -16.832031 10.367188 -16.796875 9.890625 -16.796875 C 9.421875 -16.796875 8.84375 -16.867188 8.15625 -17.015625 C 7.9375 -17.054688 7.359375 -17.148438 6.421875 -17.296875 L 6.421875 -11.03125 C 6.421875 -10.09375 6.472656 -8.609375 6.578125 -6.578125 C 6.691406 -4.585938 6.75 -3.101562 6.75 -2.125 C 6.75 -1.582031 6.601562 -1.109375 6.3125 -0.703125 C 6.019531 -0.304688 5.640625 -0.109375 5.171875 -0.109375 C 4.472656 -0.109375 3.984375 -0.78125 3.703125 -2.125 C 3.410156 -3.5 3.265625 -5.289062 3.265625 -7.5 L 3.375 -11.90625 C 3.40625 -13.132812 3.421875 -14.441406 3.421875 -15.828125 L 3.421875 -17.515625 C 3.421875 -18.085938 3.40625 -18.46875 3.375 -18.65625 L 3.375 -18.921875 L 3.53125 -22.078125 C 3.53125 -23.453125 3.476562 -25.5 3.375 -28.21875 C 3.257812 -30.9375 3.203125 -32.984375 3.203125 -34.359375 C 3.203125 -34.796875 3.347656 -35.175781 3.640625 -35.5 C 3.929688 -35.832031 4.296875 -36 4.734375 -36 C 5.890625 -36 6.46875 -34.910156 6.46875 -32.734375 L 6.359375 -25.984375 C 6.285156 -23.960938 6.25 -21.695312 6.25 -19.1875 C 6.789062 -19.007812 7.769531 -18.921875 9.1875 -18.921875 L 11.203125 -18.921875 C 11.273438 -19.140625 11.3125 -19.359375 11.3125 -19.578125 C 11.3125 -21.316406 11.203125 -23.890625 10.984375 -27.296875 C 10.734375 -30.484375 10.609375 -33.078125 10.609375 -35.078125 C 10.609375 -35.472656 10.757812 -35.804688 11.0625 -36.078125 C 11.375 -36.347656 11.75 -36.484375 12.1875 -36.484375 C 12.4375 -36.484375 12.796875 -36.394531 13.265625 -36.21875 L 13.75 -36 C 13.75 -30.851562 13.929688 -23.984375 14.296875 -15.390625 L 14.796875 -1.625 C 14.796875 -1.125 14.601562 -0.726562 14.21875 -0.4375 C 13.832031 -0.144531 13.390625 0 12.890625 0 Z M 12.890625 0 "/></g></g></g><g fill="#000000" fill-opacity="1"><g transform="translate(162.437265, 200.629277)"><g><path d="M 5.8125 0.703125 C 5.34375 0.703125 4.914062 0.539062 4.53125 0.21875 C 4.15625 -0.101562 3.953125 -0.503906 3.921875 -0.984375 L 3.921875 -3.484375 C 3.878906 -3.804688 3.859375 -4.1875 3.859375 -4.625 C 3.859375 -5.382812 3.804688 -6.546875 3.703125 -8.109375 L 3.59375 -11.578125 C 3.59375 -13.359375 3.644531 -16.003906 3.75 -19.515625 C 3.894531 -22.671875 3.96875 -25.316406 3.96875 -27.453125 C 3.96875 -27.960938 3.914062 -28.726562 3.8125 -29.75 C 3.695312 -30.789062 3.640625 -31.550781 3.640625 -32.03125 C 3.640625 -34.601562 4.398438 -35.890625 5.921875 -35.890625 C 7.117188 -35.890625 8.503906 -35.648438 10.078125 -35.171875 C 11.660156 -34.703125 12.453125 -34.144531 12.453125 -33.5 C 12.453125 -33.132812 12.296875 -32.796875 11.984375 -32.484375 C 11.679688 -32.179688 11.3125 -31.9375 10.875 -31.75 C 9.351562 -32.300781 7.976562 -32.664062 6.75 -32.84375 C 6.78125 -32.300781 6.796875 -31.519531 6.796875 -30.5 C 6.796875 -29.050781 6.78125 -27.75 6.75 -26.59375 C 6.632812 -24.851562 6.578125 -23.546875 6.578125 -22.671875 L 6.75 -21.796875 L 7.609375 -21.859375 C 7.898438 -21.890625 8.265625 -21.90625 8.703125 -21.90625 C 10.441406 -21.90625 11.3125 -21.398438 11.3125 -20.390625 C 11.3125 -19.992188 11.144531 -19.660156 10.8125 -19.390625 C 10.488281 -19.117188 10.070312 -18.984375 9.5625 -18.984375 C 8.914062 -18.984375 8.410156 -19.015625 8.046875 -19.078125 L 6.6875 -19.078125 C 6.757812 -18.140625 6.796875 -16.765625 6.796875 -14.953125 C 6.796875 -13.140625 6.78125 -11.507812 6.75 -10.0625 C 6.632812 -7.851562 6.578125 -6.203125 6.578125 -5.109375 C 6.578125 -3.078125 6.613281 -2.0625 6.6875 -2.0625 L 8.484375 -2.125 C 9.097656 -2.15625 9.84375 -2.171875 10.71875 -2.171875 C 12.09375 -2.171875 12.78125 -1.738281 12.78125 -0.875 C 12.78125 -0.363281 12.550781 0.0234375 12.09375 0.296875 C 11.644531 0.566406 11.09375 0.703125 10.4375 0.703125 Z M 5.8125 0.703125 "/></g></g></g><g fill="#000000" fill-opacity="1"><g transform="translate(182.115822, 200.629277)"><g><path d="M 5.8125 0.4375 C 4.144531 0.4375 3.3125 -0.015625 3.3125 -0.921875 L 3.53125 -14.296875 C 3.53125 -16.722656 3.476562 -20.40625 3.375 -25.34375 C 3.257812 -30.226562 3.203125 -33.90625 3.203125 -36.375 L 3.203125 -36.703125 C 3.203125 -37.640625 3.296875 -38.507812 3.484375 -39.3125 C 3.703125 -40.289062 4.28125 -40.78125 5.21875 -40.78125 C 7.757812 -40.78125 9.769531 -39.960938 11.25 -38.328125 C 12.738281 -36.703125 13.484375 -34.546875 13.484375 -31.859375 C 13.484375 -30.234375 13.046875 -28.53125 12.171875 -26.75 C 11.304688 -24.976562 10.273438 -23.65625 9.078125 -22.78125 C 11.179688 -21.363281 12.726562 -19.539062 13.71875 -17.3125 C 14.71875 -15.082031 15.21875 -12.628906 15.21875 -9.953125 C 15.21875 -8.679688 14.785156 -7.101562 13.921875 -5.21875 C 12.867188 -2.96875 11.4375 -1.351562 9.625 -0.375 C 8.539062 0.164062 7.34375 0.4375 6.03125 0.4375 Z M 6.359375 -23.59375 C 7.304688 -23.8125 8.101562 -24.59375 8.75 -25.9375 C 9.289062 -26.945312 9.800781 -28.179688 10.28125 -29.640625 C 10.382812 -30.035156 10.566406 -30.539062 10.828125 -31.15625 L 10.828125 -33.0625 C 10.828125 -34.144531 10.425781 -35.191406 9.625 -36.203125 C 8.820312 -37.222656 7.914062 -37.734375 6.90625 -37.734375 C 6.394531 -37.734375 6.140625 -37.171875 6.140625 -36.046875 C 6.140625 -33.660156 6.175781 -31.523438 6.25 -29.640625 Z M 6.578125 -2.390625 C 8.359375 -2.640625 9.769531 -3.453125 10.8125 -4.828125 C 11.863281 -6.210938 12.390625 -7.863281 12.390625 -9.78125 C 12.390625 -11.445312 12.253906 -12.976562 11.984375 -14.375 C 11.710938 -15.769531 11.359375 -16.832031 10.921875 -17.5625 C 10.523438 -18.25 10.128906 -18.828125 9.734375 -19.296875 C 9.335938 -19.773438 8.992188 -20.085938 8.703125 -20.234375 L 8.265625 -20.390625 L 6.3125 -20.390625 C 6.488281 -16.222656 6.578125 -10.222656 6.578125 -2.390625 Z M 6.578125 -2.390625 "/></g></g></g><g fill="#000000" fill-opacity="1"><g transform="translate(203.425138, 200.629277)"><g><path d="M 12.828125 0.921875 C 12.035156 0.921875 11.3125 0.0507812 10.65625 -1.6875 C 9.894531 -3.570312 9.332031 -5.507812 8.96875 -7.5 L 8.59375 -9.359375 C 7.539062 -14.535156 6.867188 -17.488281 6.578125 -18.21875 L 5.921875 -18.21875 C 5.921875 -17.164062 5.90625 -16.203125 5.875 -15.328125 L 5.875 -12.34375 C 5.875 -7.488281 6.21875 -3.703125 6.90625 -0.984375 L 6.3125 0.484375 L 4.78125 0.484375 L 4.078125 -0.328125 L 4.125 -3.96875 C 4.125 -7.226562 3.960938 -12.175781 3.640625 -18.8125 C 3.347656 -25.882812 3.203125 -30.832031 3.203125 -33.65625 C 3.203125 -35.394531 3.800781 -36.265625 5 -36.265625 C 6.957031 -36.265625 8.5625 -35.753906 9.8125 -34.734375 C 11.0625 -33.722656 11.6875 -32.3125 11.6875 -30.5 L 11.6875 -26.703125 C 11.6875 -26.148438 11.59375 -25.519531 11.40625 -24.8125 C 11.226562 -24.113281 11.035156 -23.546875 10.828125 -23.109375 L 9.78125 -21.15625 L 8.921875 -19.515625 L 9.1875 -18.21875 L 9.953125 -14.359375 C 10.460938 -11.566406 10.953125 -9.300781 11.421875 -7.5625 C 11.890625 -5.820312 12.46875 -4.242188 13.15625 -2.828125 L 13.484375 -2.171875 C 13.847656 -1.453125 14.03125 -0.875 14.03125 -0.4375 C 14.03125 -0.0703125 13.921875 0.242188 13.703125 0.515625 C 13.484375 0.785156 13.191406 0.921875 12.828125 0.921875 Z M 6.140625 -20.875 C 6.941406 -21.28125 7.625 -22.378906 8.1875 -24.171875 C 8.75 -25.960938 9.03125 -27.617188 9.03125 -29.140625 C 9.03125 -30.304688 8.882812 -31.394531 8.59375 -32.40625 C 8.40625 -32.988281 8.101562 -33.429688 7.6875 -33.734375 C 7.269531 -34.046875 6.753906 -34.203125 6.140625 -34.203125 L 6.03125 -33.9375 L 5.921875 -33.4375 L 6.03125 -27.03125 C 6.101562 -25.144531 6.140625 -23.09375 6.140625 -20.875 Z M 6.140625 -20.875 "/></g></g></g><g fill="#000000" fill-opacity="1"><g transform="translate(223.701654, 200.629277)"><g><path d="M 5.8125 0.703125 C 5.34375 0.703125 4.914062 0.539062 4.53125 0.21875 C 4.15625 -0.101562 3.953125 -0.503906 3.921875 -0.984375 L 3.921875 -3.484375 C 3.878906 -3.804688 3.859375 -4.1875 3.859375 -4.625 C 3.859375 -5.382812 3.804688 -6.546875 3.703125 -8.109375 L 3.59375 -11.578125 C 3.59375 -13.359375 3.644531 -16.003906 3.75 -19.515625 C 3.894531 -22.671875 3.96875 -25.316406 3.96875 -27.453125 C 3.96875 -27.960938 3.914062 -28.726562 3.8125 -29.75 C 3.695312 -30.789062 3.640625 -31.550781 3.640625 -32.03125 C 3.640625 -34.601562 4.398438 -35.890625 5.921875 -35.890625 C 7.117188 -35.890625 8.503906 -35.648438 10.078125 -35.171875 C 11.660156 -34.703125 12.453125 -34.144531 12.453125 -33.5 C 12.453125 -33.132812 12.296875 -32.796875 11.984375 -32.484375 C 11.679688 -32.179688 11.3125 -31.9375 10.875 -31.75 C 9.351562 -32.300781 7.976562 -32.664062 6.75 -32.84375 C 6.78125 -32.300781 6.796875 -31.519531 6.796875 -30.5 C 6.796875 -29.050781 6.78125 -27.75 6.75 -26.59375 C 6.632812 -24.851562 6.578125 -23.546875 6.578125 -22.671875 L 6.75 -21.796875 L 7.609375 -21.859375 C 7.898438 -21.890625 8.265625 -21.90625 8.703125 -21.90625 C 10.441406 -21.90625 11.3125 -21.398438 11.3125 -20.390625 C 11.3125 -19.992188 11.144531 -19.660156 10.8125 -19.390625 C 10.488281 -19.117188 10.070312 -18.984375 9.5625 -18.984375 C 8.914062 -18.984375 8.410156 -19.015625 8.046875 -19.078125 L 6.6875 -19.078125 C 6.757812 -18.140625 6.796875 -16.765625 6.796875 -14.953125 C 6.796875 -13.140625 6.78125 -11.507812 6.75 -10.0625 C 6.632812 -7.851562 6.578125 -6.203125 6.578125 -5.109375 C 6.578125 -3.078125 6.613281 -2.0625 6.6875 -2.0625 L 8.484375 -2.125 C 9.097656 -2.15625 9.84375 -2.171875 10.71875 -2.171875 C 12.09375 -2.171875 12.78125 -1.738281 12.78125 -0.875 C 12.78125 -0.363281 12.550781 0.0234375 12.09375 0.296875 C 11.644531 0.566406 11.09375 0.703125 10.4375 0.703125 Z M 5.8125 0.703125 "/></g></g></g><g fill="#000000" fill-opacity="1"><g transform="translate(243.380216, 200.629277)"><g><path d="M 7.28125 1.140625 C 6.5625 1.140625 5.929688 0.0507812 5.390625 -2.125 C 4.910156 -4.039062 4.515625 -6.421875 4.203125 -9.265625 C 3.898438 -12.117188 3.585938 -15.71875 3.265625 -20.0625 C 3.078125 -22.894531 2.820312 -25.921875 2.5 -29.140625 C 2.25 -31.828125 1.941406 -33.550781 1.578125 -34.3125 C 1.898438 -34.96875 2.425781 -35.296875 3.15625 -35.296875 C 4.3125 -35.296875 4.890625 -34.097656 4.890625 -31.703125 C 4.890625 -28.867188 5.269531 -24.734375 6.03125 -19.296875 C 6.789062 -13.898438 7.226562 -9.96875 7.34375 -7.5 L 7.609375 -9.359375 C 7.972656 -11.785156 8.289062 -14.078125 8.5625 -16.234375 C 8.832031 -18.390625 9.0625 -20.71875 9.25 -23.21875 C 9.5 -26.007812 9.625 -28.765625 9.625 -31.484375 L 11.09375 -32.140625 C 11.5625 -32.140625 11.945312 -32.019531 12.25 -31.78125 C 12.5625 -31.539062 12.71875 -31.207031 12.71875 -30.78125 L 12.71875 -30.34375 C 13.300781 -28.3125 13.78125 -26.085938 14.15625 -23.671875 C 14.539062 -21.265625 14.878906 -18.429688 15.171875 -15.171875 C 15.390625 -12.671875 15.644531 -10.332031 15.9375 -8.15625 C 16.625 -13.007812 16.96875 -18.988281 16.96875 -26.09375 C 16.96875 -27.21875 17.113281 -28.597656 17.40625 -30.234375 C 17.65625 -31.898438 17.78125 -33.257812 17.78125 -34.3125 C 17.675781 -34.632812 17.625 -34.941406 17.625 -35.234375 C 17.625 -36.109375 18.164062 -36.546875 19.25 -36.546875 C 19.6875 -36.546875 20.03125 -36.4375 20.28125 -36.21875 C 20.53125 -36 20.65625 -35.691406 20.65625 -35.296875 L 20.65625 -34.46875 C 20.65625 -33.925781 20.601562 -33.457031 20.5 -33.0625 L 20.5 -32.78125 C 20.03125 -31.332031 19.796875 -29.664062 19.796875 -27.78125 L 19.796875 -23.8125 C 19.796875 -21.53125 19.523438 -18.125 18.984375 -13.59375 C 18.398438 -9.164062 18.109375 -5.867188 18.109375 -3.703125 L 18.109375 -2.71875 C 18.109375 -1.882812 18.015625 -1.175781 17.828125 -0.59375 C 17.617188 0.125 17.097656 0.484375 16.265625 0.484375 C 15.679688 0.484375 15.234375 0.296875 14.921875 -0.078125 C 14.617188 -0.460938 14.46875 -0.941406 14.46875 -1.515625 C 14.46875 -4.453125 14.160156 -8.257812 13.546875 -12.9375 C 13.210938 -15.039062 12.863281 -17.160156 12.5 -19.296875 L 11.640625 -25.015625 C 11.492188 -23.960938 11.421875 -22.925781 11.421875 -21.90625 C 11.421875 -19.882812 11.273438 -17.203125 10.984375 -13.859375 C 10.691406 -10.523438 10.238281 -7.28125 9.625 -4.125 C 8.9375 -0.613281 8.15625 1.140625 7.28125 1.140625 Z M 7.28125 1.140625 "/></g></g></g><g fill="#000000" fill-opacity="1"><g transform="translate(270.940747, 200.629277)"><g><path d="M 6.03125 -0.046875 C 2.882812 -0.046875 1.3125 -0.59375 1.3125 -1.6875 C 1.3125 -2.550781 1.867188 -2.984375 2.984375 -2.984375 L 3.59375 -2.984375 L 4.125 -2.9375 C 4.414062 -2.9375 4.613281 -3.023438 4.71875 -3.203125 C 4.832031 -3.390625 4.890625 -3.71875 4.890625 -4.1875 C 4.890625 -4.800781 4.851562 -5.757812 4.78125 -7.0625 C 4.675781 -7.9375 4.550781 -9.5 4.40625 -11.75 C 4.082031 -17.289062 3.921875 -21.476562 3.921875 -24.3125 C 3.921875 -25.320312 3.9375 -26.242188 3.96875 -27.078125 L 4.03125 -29.859375 C 4.03125 -31.046875 3.972656 -32.039062 3.859375 -32.84375 C 3.273438 -32.695312 2.859375 -32.625 2.609375 -32.625 C 1.742188 -32.625 1.3125 -33.0625 1.3125 -33.9375 C 1.3125 -34.363281 1.582031 -34.738281 2.125 -35.0625 C 2.664062 -35.394531 3.351562 -35.632812 4.1875 -35.78125 C 5.632812 -36.070312 6.921875 -36.21875 8.046875 -36.21875 C 8.484375 -36.21875 8.851562 -36.0625 9.15625 -35.75 C 9.46875 -35.445312 9.625 -35.09375 9.625 -34.6875 C 9.625 -34.289062 9.503906 -33.945312 9.265625 -33.65625 C 9.035156 -33.363281 8.738281 -33.21875 8.375 -33.21875 C 8.15625 -33.21875 7.972656 -33.238281 7.828125 -33.28125 L 7.390625 -33.28125 C 7.023438 -33.28125 6.757812 -33.195312 6.59375 -33.03125 C 6.4375 -32.863281 6.359375 -32.566406 6.359375 -32.140625 C 6.359375 -28.617188 6.578125 -23.328125 7.015625 -16.265625 C 7.085938 -14.953125 7.234375 -13.03125 7.453125 -10.5 C 7.628906 -8.832031 7.71875 -7.128906 7.71875 -5.390625 L 7.71875 -3.3125 C 7.9375 -3.351562 8.300781 -3.375 8.8125 -3.375 C 10.332031 -3.375 11.09375 -2.738281 11.09375 -1.46875 L 11.09375 -1.140625 L 9.734375 -0.21875 C 9.691406 -0.21875 9.570312 -0.207031 9.375 -0.1875 C 9.175781 -0.164062 8.804688 -0.15625 8.265625 -0.15625 C 7.109375 -0.0820312 6.363281 -0.046875 6.03125 -0.046875 Z M 6.03125 -0.046875 "/></g></g></g><g fill="#000000" fill-opacity="1"><g transform="translate(287.466539, 200.629277)"><g><path d="M 4.296875 0.765625 C 3.640625 0.648438 3.082031 0.410156 2.625 0.046875 C 2.175781 -0.304688 1.914062 -0.773438 1.84375 -1.359375 L 2.453125 -2.28125 C 2.660156 -2.28125 3.003906 -2.207031 3.484375 -2.0625 C 4.023438 -1.957031 4.441406 -1.90625 4.734375 -1.90625 C 5.378906 -1.90625 5.960938 -2.191406 6.484375 -2.765625 C 7.015625 -3.347656 7.410156 -4.113281 7.671875 -5.0625 C 8.140625 -6.800781 8.375 -8.359375 8.375 -9.734375 C 8.375 -12.128906 7.613281 -14.648438 6.09375 -17.296875 L 5.484375 -18.328125 C 4.796875 -19.523438 4.21875 -20.59375 3.75 -21.53125 C 3.28125 -22.476562 2.882812 -23.492188 2.5625 -24.578125 C 2.125 -25.992188 1.90625 -27.40625 1.90625 -28.8125 C 1.90625 -30.414062 2.265625 -32.085938 2.984375 -33.828125 C 3.347656 -34.660156 3.863281 -35.335938 4.53125 -35.859375 C 5.207031 -36.390625 5.960938 -36.65625 6.796875 -36.65625 C 7.453125 -36.65625 8.0625 -36.441406 8.625 -36.015625 C 9.1875 -35.597656 9.46875 -35.101562 9.46875 -34.53125 C 9.46875 -34.195312 9.335938 -33.941406 9.078125 -33.765625 C 8.828125 -33.585938 8.519531 -33.5 8.15625 -33.5 C 7.757812 -33.5 7.378906 -33.609375 7.015625 -33.828125 C 6.210938 -33.785156 5.578125 -33.078125 5.109375 -31.703125 C 4.710938 -30.429688 4.515625 -29.378906 4.515625 -28.546875 C 4.515625 -27.492188 4.675781 -26.429688 5 -25.359375 C 5.320312 -24.296875 5.738281 -23.328125 6.25 -22.453125 L 7.453125 -20.28125 L 9.359375 -16.6875 C 9.859375 -15.675781 10.257812 -14.5 10.5625 -13.15625 C 10.875 -11.8125 11.03125 -10.453125 11.03125 -9.078125 C 11.03125 -6.867188 10.523438 -4.765625 9.515625 -2.765625 C 9.003906 -1.753906 8.285156 -0.941406 7.359375 -0.328125 C 6.441406 0.285156 5.421875 0.59375 4.296875 0.59375 Z M 4.296875 0.765625 "/></g></g></g><g fill="#000000" fill-opacity="1"><g transform="translate(305.133851, 200.629277)"><g><path d="M 6.359375 -0.875 L 6.3125 -2.984375 C 6.269531 -3.609375 6.25 -4.300781 6.25 -5.0625 L 6.3125 -6.90625 C 6.195312 -7.300781 5.921875 -11.269531 5.484375 -18.8125 C 5.054688 -26.351562 4.804688 -31.191406 4.734375 -33.328125 C 2.628906 -33.398438 1.285156 -33.617188 0.703125 -33.984375 C 0.304688 -34.273438 0.109375 -34.601562 0.109375 -34.96875 C 0.109375 -35.25 0.296875 -35.507812 0.671875 -35.75 C 1.054688 -35.988281 1.445312 -36.109375 1.84375 -36.109375 C 2.863281 -36.109375 4.097656 -36.035156 5.546875 -35.890625 C 6.921875 -35.703125 8.15625 -35.609375 9.25 -35.609375 L 10.109375 -35.609375 C 11.234375 -35.609375 11.796875 -35.175781 11.796875 -34.3125 C 11.796875 -33.875 11.613281 -33.519531 11.25 -33.25 C 10.894531 -32.976562 10.476562 -32.84375 10 -32.84375 C 9.675781 -32.84375 9.207031 -32.894531 8.59375 -33 L 7.5 -33.21875 L 7.453125 -32.953125 L 7.390625 -32.671875 C 7.390625 -29.453125 7.695312 -24.304688 8.3125 -17.234375 C 8.894531 -10.597656 9.1875 -5.453125 9.1875 -1.796875 C 9.1875 -1.359375 8.992188 -0.972656 8.609375 -0.640625 C 8.234375 -0.316406 7.8125 -0.15625 7.34375 -0.15625 Z M 6.359375 -0.875 "/></g></g></g></svg>